<svg width="14" height="15" viewBox="0 0 14 15" fill="none" xmlns="http://www.w3.org/2000/svg">
<g id="calendar">
<path id="Vector" d="M13.6804 2.62506C13.4675 2.39887 13.2149 2.28575 12.9232 2.28575H11.8464V1.42858C11.8464 1.0358 11.7145 0.699467 11.4509 0.419705C11.1872 0.139944 10.8704 0 10.5001 0H9.96177C9.5915 0 9.27462 0.139944 9.011 0.419737C8.74728 0.699467 8.61547 1.03583 8.61547 1.42861V2.28579H5.38483V1.42861C5.38483 1.03583 5.25295 0.699499 4.9893 0.419737C4.7257 0.139944 4.4088 0 4.03852 0H3.5001C3.12992 0 2.81298 0.139944 2.54933 0.419737C2.28573 0.699467 2.15383 1.03583 2.15383 1.42861V2.28579H1.07699C0.78525 2.28579 0.532881 2.3989 0.319734 2.62509C0.106588 2.85125 0 3.11919 0 3.42869V13.8572C0 14.1665 0.106588 14.4344 0.319734 14.6607C0.532851 14.8869 0.78522 15 1.07699 15H12.923C13.2147 15 13.4673 14.8869 13.6802 14.6607C13.8934 14.4345 14 14.1665 14 13.8572V3.42866C14 3.11907 13.8935 2.85125 13.6804 2.62506ZM9.69255 1.42871C9.69255 1.3453 9.71757 1.27679 9.76799 1.22334C9.81841 1.16983 9.88294 1.14303 9.96159 1.14303H10.4999C10.5786 1.14303 10.6429 1.16974 10.6935 1.22334C10.744 1.27688 10.7692 1.3454 10.7692 1.42871V4.00004C10.7692 4.08341 10.744 4.1518 10.6935 4.2054C10.6429 4.25885 10.5786 4.28571 10.4999 4.28571H9.96159C9.88294 4.28571 9.81841 4.25897 9.76799 4.2054C9.71757 4.15177 9.69255 4.08341 9.69255 4.00004V1.42871ZM3.23091 1.42871C3.23091 1.3453 3.2561 1.27679 3.30658 1.22334C3.35709 1.16983 3.42154 1.14303 3.5001 1.14303H4.03852C4.11712 1.14303 4.18168 1.16974 4.23204 1.22334C4.28246 1.27688 4.30778 1.3454 4.30778 1.42871V4.00004C4.30778 4.08341 4.28258 4.1519 4.23204 4.2054C4.18156 4.25885 4.11712 4.28571 4.03852 4.28571H3.5001C3.42154 4.28571 3.357 4.25897 3.30658 4.2054C3.25622 4.15177 3.23091 4.08341 3.23091 4.00004V1.42871ZM12.923 13.8571H1.07699V5.71432H12.923V13.8571Z" fill="#9696A2"/>
<rect id="Rectangle 169" x="3" y="7" width="2" height="2" rx="0.5" fill="#9696A2"/>
<rect id="Rectangle 172" x="3" y="10" width="2" height="2" rx="0.5" fill="#9696A2"/>
<rect id="Rectangle 170" x="6" y="7" width="2" height="2" rx="0.5" fill="#9696A2"/>
<rect id="Rectangle 173" x="6" y="10" width="2" height="2" rx="0.5" fill="#9696A2"/>
<rect id="Rectangle 171" x="9" y="7" width="2" height="2" rx="0.5" fill="#9696A2"/>
<rect id="Rectangle 174" x="9" y="10" width="2" height="2" rx="0.5" fill="#9696A2"/>
</g>
</svg>
