<svg width="12" height="12" viewBox="0 0 12 12" fill="none" xmlns="http://www.w3.org/2000/svg">
<path id="Vector" d="M0.1 6C0.1 2.74157 2.74157 0.1 6 0.1C9.25843 0.1 11.9 2.74157 11.9 6C11.9 9.25843 9.25843 11.9 6 11.9C2.74157 11.9 0.1 9.25843 0.1 6ZM6 10.1633C6.50147 10.1633 6.90814 9.75666 6.90814 9.25519V5.99515C6.90814 5.49368 6.50147 5.08701 6 5.08701C5.49855 5.08701 5.09186 5.49339 5.09186 5.99515V9.25519C5.09186 9.75666 5.49853 10.1633 6 10.1633ZM5.09186 3.13959C5.09186 3.64103 5.49824 4.04772 6 4.04772C6.50147 4.04772 6.90814 3.64105 6.90814 3.13959C6.90814 2.63812 6.50147 2.23145 6 2.23145C5.49853 2.23145 5.09186 2.63812 5.09186 3.13959Z" fill="#9696A2" stroke="#24252F" stroke-width="0.2"/>
</svg>
