<svg width="11" height="16" viewBox="0 0 11 16" fill="none" xmlns="http://www.w3.org/2000/svg">
<g id="Group 1171275542">
<path id="Vector" d="M10.3335 8.66663C9.96484 8.66663 9.66687 8.96533 9.66687 9.33325V12C9.66687 12.3673 9.36816 12.6666 9.00012 12.6666H7.00012V2.66663C7.00012 2.09729 6.63745 1.58862 6.09216 1.39929L5.89478 1.33325H9.00012C9.36816 1.33325 9.66687 1.63257 9.66687 2V9.91333C9.66687 10.2812 9.96484 10.58 10.3335 10.58C10.7021 10.58 11.0001 10.2812 11.0001 9.91333V2C11.0001 0.897339 10.1028 0 9.00012 0H1.8335C1.80811 0 1.78687 0.0113526 1.76221 0.0146484C1.7301 0.0119629 1.69946 0 1.66687 0C0.931519 0 0.333496 0.5979 0.333496 1.33325V13.3333C0.333496 13.9026 0.696167 14.4113 1.24146 14.6006L5.25354 15.938C5.38953 15.98 5.52478 16 5.66687 16C6.40222 16 7.00012 15.402 7.00012 14.6666V14H9.00012C10.1028 14 11.0001 13.1027 11.0001 12V9.33325C11.0001 8.96533 10.7021 8.66663 10.3335 8.66663Z" fill="#9696A2"/>
</g>
</svg>
