<svg width="19" height="18" viewBox="0 0 19 18" fill="none" xmlns="http://www.w3.org/2000/svg">
<g id="Group">
<path id="Vector" d="M17.9339 7.43393L15.8692 6.92617C15.7451 6.53477 15.5854 6.15523 15.3928 5.79217C15.7028 5.27614 16.3543 4.19006 16.3543 4.19006C16.4789 3.98254 16.446 3.71679 16.275 3.54582L14.7836 2.05443C14.6126 1.88293 14.3474 1.84999 14.1394 1.97511L12.5346 2.9366C12.1736 2.74553 11.7962 2.58743 11.4074 2.46435L10.8996 0.399656C10.8409 0.164813 10.6302 0 10.3882 0H8.27881C8.03676 0 7.82561 0.164812 7.76743 0.399621C7.76743 0.399621 7.41569 1.84068 7.26016 2.46382C6.84559 2.59513 6.44495 2.7656 6.06333 2.97366L4.39942 1.97511C4.19137 1.8515 3.92668 1.88346 3.75518 2.05443L2.26379 3.54582C2.09282 3.71679 2.05984 3.98254 2.18447 4.19006L3.21343 5.90857C3.04759 6.23559 2.90855 6.57598 2.79784 6.92462L0.733152 7.43393C0.498309 7.49264 0.333496 7.70326 0.333496 7.94531V10.0547C0.333496 10.2967 0.498309 10.5079 0.733117 10.5661L2.79834 11.0738C2.92349 11.4709 3.0862 11.8566 3.28346 12.2269L2.36268 13.7615C2.23805 13.9691 2.27103 14.2348 2.44199 14.4058L3.93339 15.8972C4.10386 16.0676 4.36957 16.1 4.57763 15.9765C4.57763 15.9765 5.61017 15.3575 6.11589 15.0546C6.48204 15.2498 6.86518 15.411 7.26019 15.5361L7.76746 17.6003C7.82561 17.8352 8.03676 18 8.27881 18H10.3882C10.6302 18 10.8409 17.8352 10.8996 17.6004L11.4068 15.5362C11.8132 15.4074 12.2045 15.2411 12.5769 15.0392C13.0965 15.3508 14.1393 15.9765 14.1393 15.9765C14.3468 16.1006 14.6126 16.0687 14.7836 15.8972L16.275 14.4058C16.4459 14.2348 16.4789 13.9691 16.3543 13.7615L15.4062 12.1821C15.5931 11.8272 15.7481 11.4559 15.8691 11.0738L17.9338 10.5661C18.1687 10.5074 18.3335 10.2967 18.3335 10.0547V7.94531C18.3335 7.70326 18.1687 7.49264 17.9339 7.43393ZM9.3335 12.6914C7.29827 12.6914 5.64209 11.0352 5.64209 9C5.64209 6.96477 7.29827 5.30859 9.3335 5.30859C11.3687 5.30859 13.0249 6.96477 13.0249 9C13.0249 11.0352 11.3687 12.6914 9.3335 12.6914Z" fill="#9696A2"/>
</g>
</svg>
