<svg width="10" height="6" viewBox="0 0 10 6" fill="none" xmlns="http://www.w3.org/2000/svg">
<path d="M5.00211 1.97415L1.26098 5.71512C1.15821 5.81813 1.02081 5.8748 0.874309 5.8748C0.727723 5.8748 0.590406 5.81813 0.487479 5.71512L0.159837 5.38732C0.0567477 5.28447 -2.24982e-07 5.14699 -2.18578e-07 5.00049C-2.12174e-07 4.85399 0.0567478 4.71667 0.159837 4.61374L4.61398 0.159515C4.71724 0.0561812 4.8552 -0.000404114 5.00187 2.39679e-06C5.14919 -0.000404101 5.28699 0.0561 5.39033 0.159515L9.84016 4.6096C9.94325 4.71252 10 4.84984 10 4.99643C10 5.14293 9.94325 5.28025 9.84016 5.38325L9.51252 5.71098C9.29927 5.92423 8.95211 5.92423 8.73894 5.71098L5.00211 1.97415Z" fill="#9696A2"/>
</svg>
